<?xml version="1.0" encoding="UTF-8" standalone="no"?>
<svg
   height="24px"
   viewBox="0 -960 960 960"
   width="24px"
   fill="#e3e3e3"
   version="1.1"
   id="svg1"
   sodipodi:docname="database.svg"
   inkscape:version="1.3.2 (091e20e, 2023-11-25, custom)"
   xmlns:inkscape="http://www.inkscape.org/namespaces/inkscape"
   xmlns:sodipodi="http://sodipodi.sourceforge.net/DTD/sodipodi-0.dtd"
   xmlns="http://www.w3.org/2000/svg"
   xmlns:svg="http://www.w3.org/2000/svg">
  <defs
     id="defs1">
    <inkscape:path-effect
       effect="bspline"
       id="path-effect2"
       is_visible="true"
       lpeversion="1.3"
       weight="33.333333"
       steps="2"
       helper_size="0"
       apply_no_weight="true"
       apply_with_weight="true"
       only_selected="false"
       uniform="false" />
  </defs>
  <sodipodi:namedview
     id="namedview1"
     pagecolor="#ffffff"
     bordercolor="#000000"
     borderopacity="0.25"
     inkscape:showpageshadow="2"
     inkscape:pageopacity="0.0"
     inkscape:pagecheckerboard="0"
     inkscape:deskcolor="#d1d1d1"
     showgrid="true"
     inkscape:zoom="11.976621"
     inkscape:cx="-4.3000442"
     inkscape:cy="24.673069"
     inkscape:window-width="1920"
     inkscape:window-height="1009"
     inkscape:window-x="-8"
     inkscape:window-y="-8"
     inkscape:window-maximized="1"
     inkscape:current-layer="svg1">
    <inkscape:grid
       id="grid1"
       units="px"
       originx="0"
       originy="0"
       spacingx="160"
       spacingy="160"
       empcolor="#0099e5"
       empopacity="0.30196078"
       color="#0099e5"
       opacity="0.14901961"
       empspacing="1"
       dotted="false"
       gridanglex="30"
       gridanglez="30"
       visible="true" />
  </sodipodi:namedview>
  <g
     id="g2"
     transform="matrix(0.8,0,0,0.8,96,-95.999999)">
    <path
       style="fill:#004a77;fill-opacity:1;stroke-width:40"
       d="M 240,-933.33334 C 106.66667,-906.66667 53.333331,-853.33333 26.666666,-719.99787 0,-586.6624 0,-373.33332 26.6672,-239.99946 53.3344,-106.6656 106.66667,-53.333325 240.00214,-26.666663 373.3376,0 586.66668,0 720.00054,-26.6672 853.3344,-53.3344 906.66668,-106.66668 933.33334,-240.00214 960,-373.3376 960,-586.66667 933.3328,-720.00054 906.6656,-853.3344 853.33333,-906.66668 719.99786,-933.33334 586.6624,-960 373.33333,-960 240,-933.33334 Z"
       id="path2"
       inkscape:path-effect="#path-effect2"
       inkscape:original-d="m 160,-960 c -53.33333,53.33333 -106.666668,106.66667 -160,160 0,213.3376 0,426.66668 0,640 53.3344,53.3344 106.66667,106.66668 160,160 213.3376,0 426.66668,0 640,0 53.3344,-53.3344 106.66668,-106.66668 160,-160 0,-213.3376 0,-426.66667 0,-640 -53.3344,-53.3344 -106.66668,-106.66667 -160,-160 -213.3376,0 -426.66667,0 -640,0 z"
       transform="matrix(1.25,0,0,1.25,-120,120.00004)" />
    <path
       d="M 480,-120 Q 329,-120 224.5,-166.5 120,-213 120,-280 v -400 q 0,-66 105.5,-113 105.5,-47 254.5,-47 149,0 254.5,47 105.5,47 105.5,113 v 400 q 0,67 -104.5,113.5 Q 631,-120 480,-120 Z m 0,-479 q 89,0 179,-25.5 90,-25.5 101,-54.5 -11,-29 -100.5,-55 -89.5,-26 -179.5,-26 -91,0 -178.5,25.5 Q 214,-709 200,-679 q 14,30 101.5,55 87.5,25 178.5,25 z m 0,199 q 42,0 81,-4 39,-4 74.5,-11.5 35.5,-7.5 67,-18.5 31.5,-11 57.5,-25 v -120 q -26,14 -57.5,25 -31.5,11 -67,18.5 -35.5,7.5 -74.5,11.5 -39,4 -81,4 -42,0 -82,-4 -40,-4 -75.5,-11.5 Q 287,-543 256,-554 q -31,-11 -56,-25 v 120 q 25,14 56,25 31,11 66.5,18.5 35.5,7.5 75.5,11.5 40,4 82,4 z m 0,200 q 46,0 93.5,-7 47.5,-7 87.5,-18.5 40,-11.5 67,-26 27,-14.5 32,-29.5 v -98 q -26,14 -57.5,25 -31.5,11 -67,18.5 -35.5,7.5 -74.5,11.5 -39,4 -81,4 -42,0 -82,-4 -40,-4 -75.5,-11.5 Q 287,-343 256,-354 q -31,-11 -56,-25 v 99 q 5,15 31.5,29 26.5,14 66.5,25.5 40,11.5 88,18.5 48,7 94,7 z"
       id="path1" />
  </g>
</svg>
