<?xml version="1.0" encoding="UTF-8" standalone="no"?>
<svg
   height="24px"
   viewBox="0 -960 960 960"
   width="24px"
   fill="#e3e3e3"
   version="1.1"
   id="svg1"
   xmlns="http://www.w3.org/2000/svg"
   xmlns:svg="http://www.w3.org/2000/svg">
  <defs
     id="defs1" />
  <g
     id="g2">
    <path
       style="fill:#004a77;stroke-width:40;fill-opacity:1"
       d="M 240,-933.33334 C 106.66667,-906.66667 53.333331,-853.33333 26.666666,-719.99787 0,-586.6624 0,-373.33332 26.6672,-239.99946 53.3344,-106.6656 106.66667,-53.333325 240.00214,-26.666663 373.3376,0 586.66668,0 720.00054,-26.6672 853.3344,-53.3344 906.66668,-106.66668 933.33334,-240.00214 960,-373.3376 960,-586.66667 933.3328,-720.00054 906.6656,-853.3344 853.33333,-906.66668 719.99786,-933.33334 586.6624,-960 373.33333,-960 240,-933.33334 Z"
       id="path2"
       transform="translate(0,3.3e-5)" />
    <path
       d="M 401.6,-287.6 219.2,-470 l 45.6,-45.6 136.8,136.8 293.6,-293.6 45.6,45.6 z"
       id="path1"
       style="stroke-width:0.8" />
  </g>
</svg>
