<?xml version="1.0" encoding="UTF-8" standalone="no"?>
<svg
   height="24px"
   viewBox="0 -960 960 960"
   width="24px"
   fill="#e3e3e3"
   version="1.1"
   id="svg1"
   sodipodi:docname="reset-history.svg"
   inkscape:version="1.3.2 (091e20e, 2023-11-25, custom)"
   xmlns:inkscape="http://www.inkscape.org/namespaces/inkscape"
   xmlns:sodipodi="http://sodipodi.sourceforge.net/DTD/sodipodi-0.dtd"
   xmlns="http://www.w3.org/2000/svg"
   xmlns:svg="http://www.w3.org/2000/svg">
  <defs
     id="defs1">
    <inkscape:path-effect
       effect="bspline"
       id="path-effect2"
       is_visible="true"
       lpeversion="1.3"
       weight="33.333333"
       steps="2"
       helper_size="0"
       apply_no_weight="true"
       apply_with_weight="true"
       only_selected="false"
       uniform="false" />
  </defs>
  <sodipodi:namedview
     id="namedview1"
     pagecolor="#ffffff"
     bordercolor="#000000"
     borderopacity="0.25"
     inkscape:showpageshadow="2"
     inkscape:pageopacity="0.0"
     inkscape:pagecheckerboard="0"
     inkscape:deskcolor="#d1d1d1"
     showgrid="true"
     inkscape:zoom="16.9375"
     inkscape:cx="3.3948339"
     inkscape:cy="11.188192"
     inkscape:window-width="1920"
     inkscape:window-height="1009"
     inkscape:window-x="-8"
     inkscape:window-y="-8"
     inkscape:window-maximized="1"
     inkscape:current-layer="svg1">
    <inkscape:grid
       id="grid1"
       units="px"
       originx="0"
       originy="0"
       spacingx="160"
       spacingy="160"
       empcolor="#0099e5"
       empopacity="0.30196078"
       color="#0099e5"
       opacity="0.14901961"
       empspacing="6"
       dotted="false"
       gridanglex="30"
       gridanglez="30"
       visible="true" />
  </sodipodi:namedview>
  <g
     id="g2"
     transform="matrix(0.8,0,0,0.8,96,-95.999999)">
    <path
       style="fill:#004a77;fill-opacity:1;stroke-width:40"
       d="M 240,-933.33334 C 106.66667,-906.66667 53.333331,-853.33333 26.666666,-719.99787 0,-586.6624 0,-373.33332 26.6672,-239.99946 53.3344,-106.6656 106.66667,-53.333325 240.00214,-26.666663 373.3376,0 586.66668,0 720.00054,-26.6672 853.3344,-53.3344 906.66668,-106.66668 933.33334,-240.00214 960,-373.3376 960,-586.66667 933.3328,-720.00054 906.6656,-853.3344 853.33333,-906.66668 719.99786,-933.33334 586.6624,-960 373.33333,-960 240,-933.33334 Z"
       id="path2"
       inkscape:path-effect="#path-effect2"
       inkscape:original-d="m 160,-960 c -53.33333,53.33333 -106.666668,106.66667 -160,160 0,213.3376 0,426.66668 0,640 53.3344,53.3344 106.66667,106.66668 160,160 213.3376,0 426.66668,0 640,0 53.3344,-53.3344 106.66668,-106.66668 160,-160 0,-213.3376 0,-426.66667 0,-640 -53.3344,-53.3344 -106.66668,-106.66667 -160,-160 -213.3376,0 -426.66667,0 -640,0 z"
       transform="matrix(1.25,0,0,1.25,-120,120.00004)" />
    <path
       d="M 480,-120 Q 342,-120 239.5,-211.5 137,-303 122,-440 h 82 q 14,104 92.5,172 78.5,68 183.5,68 117,0 198.5,-81.5 Q 760,-363 760,-480 760,-597 678.5,-678.5 597,-760 480,-760 q -69,0 -129,32 -60,32 -101,88 h 110 v 80 H 120 v -240 h 80 v 94 q 51,-64 124.5,-99 73.5,-35 155.5,-35 75,0 140.5,28.5 65.5,28.5 114,77 48.5,48.5 77,114 28.5,65.5 28.5,140.5 0,75 -28.5,140.5 -28.5,65.5 -77,114 -48.5,48.5 -114,77 Q 555,-120 480,-120 Z M 592,-312 440,-464 v -216 h 80 v 184 l 128,128 z"
       id="path1" />
  </g>
</svg>
