<?xml version="1.0" encoding="UTF-8" standalone="no"?>
<!-- Created with Inkscape (http://www.inkscape.org/) -->

<svg
   width="300"
   height="300"
   viewBox="0 0 300 300"
   version="1.1"
   id="svg1"
   inkscape:version="1.3.2 (091e20e, 2023-11-25, custom)"
   sodipodi:docname="site-icon.svg"
   xml:space="preserve"
   xmlns:inkscape="http://www.inkscape.org/namespaces/inkscape"
   xmlns:sodipodi="http://sodipodi.sourceforge.net/DTD/sodipodi-0.dtd"
   xmlns="http://www.w3.org/2000/svg"
   xmlns:svg="http://www.w3.org/2000/svg"><sodipodi:namedview
     id="namedview1"
     pagecolor="#ffffff"
     bordercolor="#000000"
     borderopacity="0.25"
     inkscape:showpageshadow="2"
     inkscape:pageopacity="0.0"
     inkscape:pagecheckerboard="0"
     inkscape:deskcolor="#d1d1d1"
     inkscape:document-units="mm"
     showgrid="true"
     inkscape:zoom="0.5121316"
     inkscape:cx="159.13878"
     inkscape:cy="285.08297"
     inkscape:window-width="958"
     inkscape:window-height="1000"
     inkscape:window-x="-7"
     inkscape:window-y="0"
     inkscape:window-maximized="0"
     inkscape:current-layer="layer1"><inkscape:grid
       id="grid1"
       units="px"
       originx="-200"
       originy="-100"
       spacingx="20"
       spacingy="20"
       empcolor="#0099e5"
       empopacity="0.30196078"
       color="#0099e5"
       opacity="0.14901961"
       empspacing="5"
       dotted="false"
       gridanglex="30"
       gridanglez="30"
       visible="true"
       enabled="false" /></sodipodi:namedview><defs
     id="defs1"><inkscape:path-effect
       effect="offset"
       id="path-effect5"
       is_visible="true"
       lpeversion="1.2"
       linejoin_type="round"
       unit="px"
       offset="5"
       miter_limit="4"
       attempt_force_join="false"
       update_on_knot_move="true" /><inkscape:path-effect
       effect="offset"
       id="path-effect3"
       is_visible="true"
       lpeversion="1.2"
       linejoin_type="miter"
       unit="px"
       offset="-5"
       miter_limit="4"
       attempt_force_join="false"
       update_on_knot_move="true" /><inkscape:path-effect
       effect="offset"
       id="path-effect20"
       is_visible="true"
       lpeversion="1.2"
       linejoin_type="round"
       unit="px"
       offset="5"
       miter_limit="4"
       attempt_force_join="false"
       update_on_knot_move="true" /><inkscape:path-effect
       effect="offset"
       id="path-effect18"
       is_visible="true"
       lpeversion="1.2"
       linejoin_type="round"
       unit="px"
       offset="5"
       miter_limit="4"
       attempt_force_join="false"
       update_on_knot_move="true" /><inkscape:path-effect
       effect="offset"
       id="path-effect16"
       is_visible="true"
       lpeversion="1.2"
       linejoin_type="round"
       unit="px"
       offset="5"
       miter_limit="4"
       attempt_force_join="false"
       update_on_knot_move="true" /><inkscape:path-effect
       effect="offset"
       id="path-effect14"
       is_visible="true"
       lpeversion="1.2"
       linejoin_type="round"
       unit="px"
       offset="5"
       miter_limit="4"
       attempt_force_join="false"
       update_on_knot_move="true" /><inkscape:path-effect
       effect="offset"
       id="path-effect10"
       is_visible="true"
       lpeversion="1.2"
       linejoin_type="round"
       unit="px"
       offset="5"
       miter_limit="4"
       attempt_force_join="false"
       update_on_knot_move="true" /><inkscape:path-effect
       effect="offset"
       id="path-effect8"
       is_visible="true"
       lpeversion="1.2"
       linejoin_type="round"
       unit="px"
       offset="5"
       miter_limit="4"
       attempt_force_join="false"
       update_on_knot_move="true" /><inkscape:path-effect
       effect="offset"
       id="path-effect6"
       is_visible="true"
       lpeversion="1.2"
       linejoin_type="round"
       unit="px"
       offset="5"
       miter_limit="4"
       attempt_force_join="false"
       update_on_knot_move="true" /><inkscape:path-effect
       effect="offset"
       id="path-effect4"
       is_visible="true"
       lpeversion="1.2"
       linejoin_type="round"
       unit="px"
       offset="5"
       miter_limit="4"
       attempt_force_join="false"
       update_on_knot_move="true" /><inkscape:path-effect
       effect="offset"
       id="path-effect2"
       is_visible="true"
       lpeversion="1.2"
       linejoin_type="round"
       unit="px"
       offset="5"
       miter_limit="4"
       attempt_force_join="false"
       update_on_knot_move="true" /><inkscape:path-effect
       effect="offset"
       id="path-effect1"
       is_visible="true"
       lpeversion="1.2"
       linejoin_type="miter"
       unit="px"
       offset="-10"
       miter_limit="4"
       attempt_force_join="false"
       update_on_knot_move="true" /></defs><g
     inkscape:label="Шар 1"
     inkscape:groupmode="layer"
     id="layer1"
     transform="translate(-200,-100)"><path
       id="path20"
       style="fill:#1b7415;fill-opacity:1"
       d="m 294.79758,110 a 4.7778899,5.2324353 46.301281 0 0 -3.66832,1.46484 l -18.62216,17.07032 a 4.7778899,5.2324353 46.301281 0 0 -1.78622,3.53515 L 268.63636,155 a 4.7778899,5.2324353 46.301281 0 1 -5.45454,5 h -25 c -5.49942,0 -10.40915,4.50058 -10.90909,10 -0.49995,5.49942 3.59149,10 9.09091,10 h 30 L 265,195 a 4.7778899,5.2324353 46.301281 0 1 -5.45455,5 h -25 c -5.49942,0 -10.40914,4.50058 -10.90909,10 -0.49994,5.49942 3.59149,10 9.09091,10 h 30 l -1.36363,15 a 4.7778899,5.2324353 46.301281 0 1 -5.45455,5 h -25 c -5.49942,0 -10.40914,4.50058 -10.90909,10 -0.49995,5.49942 3.59149,10 9.09091,10 h 30 l -1.36364,15 a 4.7778899,5.2324353 46.301281 0 1 -5.45454,5 h -25 c -5.49942,0 -10.40915,4.50058 -10.90909,10 -0.49995,5.49942 3.59148,10 9.0909,10 h 30 l -1.36363,15 a 4.7778899,5.2324353 46.301281 0 1 -5.45455,5 h -25 c -5.49942,0 -10.40914,4.50058 -10.90909,10 -0.49994,5.49942 3.59149,10 9.09091,10 h 30 l -2.53906,27.92969 a 4.7778899,5.2324353 46.301281 0 0 1.14346,3.53515 l 15.51847,17.07032 A 4.7778899,5.2324353 46.301281 0 0 269.34304,390 h 135.85938 a 4.7778899,5.2324353 46.301281 0 0 3.66831,-1.46484 l 18.62217,-17.07032 a 4.7778899,5.2324353 46.301281 0 0 1.78622,-3.53515 L 431.36364,345 a 4.7778899,5.2324353 46.301281 0 1 5.45454,-5 h 25 c 5.49942,0 10.40915,-4.50058 10.90909,-10 0.49995,-5.49942 -3.59149,-10 -9.09091,-10 h -30 L 435,305 a 4.7778899,5.2324353 46.301281 0 1 5.45455,-5 h 25 c 5.49942,0 10.40914,-4.50058 10.90909,-10 0.49994,-5.49942 -3.59149,-10 -9.09091,-10 h -30 l 1.36363,-15 a 4.7778899,5.2324353 46.301281 0 1 5.45455,-5 h 25 c 5.49942,0 10.40914,-4.50058 10.90909,-10 0.49995,-5.49942 -3.59149,-10 -9.09091,-10 h -30 l 1.36364,-15 a 4.7778899,5.2324353 46.301281 0 1 5.45454,-5 h 25 c 5.49942,0 10.40915,-4.50058 10.90909,-10 0.49995,-5.49942 -3.59149,-10 -9.09091,-10 h -30 l 1.36364,-15 a 4.7778899,5.2324353 46.301281 0 1 5.45455,-5 h 25 c 5.49942,0 10.40914,-4.50058 10.90909,-10 0.49994,-5.49942 -3.59149,-10 -9.09091,-10 h -30 l 2.53906,-27.92969 a 4.7778899,5.2324353 46.301281 0 0 -1.14346,-3.53515 L 434.05894,111.46484 A 4.7778899,5.2324353 46.301281 0 0 430.65696,110 Z" /><path
       id="path15"
       style="fill:#ffffff;fill-opacity:1"
       d="m 334.59516,135 a 4.7778899,5.2324353 46.301281 0 0 -3.66831,1.46484 l -10.90909,10 a 4.7778899,5.2324353 46.301281 0 0 -0.64276,7.07032 l 9.09091,10 A 4.7778899,5.2324353 46.301281 0 0 331.86789,165 h 51.71876 a 4.7778899,5.2324353 46.301281 0 0 3.66832,-1.46484 l 10.90909,-10 a 4.7778899,5.2324353 46.301281 0 0 0.64276,-7.07032 l -9.09091,-10 A 4.7778899,5.2324353 46.301281 0 0 386.31392,135 Z m -27.12215,24.20312 a 4.7778899,5.2324353 46.301281 0 0 -2.8814,1.40235 l -10.90909,10 a 4.7778899,5.2324353 46.301281 0 0 -1.78621,3.53515 l -4.70171,51.71876 a 4.7778899,5.2324353 46.301281 0 0 1.14346,3.53515 l 9.09091,10 a 4.7778899,5.2324353 46.301281 0 0 7.07032,0 l 10.90909,-10 a 4.7778899,5.2324353 46.301281 0 0 1.78622,-3.53515 l 4.70171,-51.71876 a 4.7778899,5.2324353 46.301281 0 0 -1.14347,-3.53515 l -9.09091,-10 a 4.7778899,5.2324353 46.301281 0 0 -4.18892,-1.40235 z m 100,0 a 4.7778899,5.2324353 46.301281 0 0 -2.8814,1.40235 l -10.90909,10 a 4.7778899,5.2324353 46.301281 0 0 -1.78621,3.53515 l -4.70171,51.71876 a 4.7778899,5.2324353 46.301281 0 0 1.14346,3.53515 l 9.09091,10 a 4.7778899,5.2324353 46.301281 0 0 7.07032,0 l 10.90909,-10 a 4.7778899,5.2324353 46.301281 0 0 1.78622,-3.53515 l 4.70171,-51.71876 a 4.7778899,5.2324353 46.301281 0 0 -1.14347,-3.53515 l -9.09091,-10 a 4.7778899,5.2324353 46.301281 0 0 -4.18892,-1.40235 z M 325.50426,235 a 4.7778899,5.2324353 46.301281 0 0 -3.66832,1.46484 l -10.90909,10 a 4.7778899,5.2324353 46.301281 0 0 -0.64276,7.07032 l 9.09091,10 A 4.7778899,5.2324353 46.301281 0 0 322.77698,265 h 51.71876 a 4.7778899,5.2324353 46.301281 0 0 3.66832,-1.46484 l 10.90909,-10 a 4.7778899,5.2324353 46.301281 0 0 0.64276,-7.07032 l -9.09091,-10 A 4.7778899,5.2324353 46.301281 0 0 377.22302,235 Z m 72.87784,24.20312 a 4.7778899,5.2324353 46.301281 0 0 -2.88139,1.40235 l -10.9091,10 a 4.7778899,5.2324353 46.301281 0 0 -1.78621,3.53515 l -4.70171,51.71876 a 4.7778899,5.2324353 46.301281 0 0 1.14347,3.53515 l 9.0909,10 a 4.7778899,5.2324353 46.301281 0 0 7.07032,0 l 10.9091,-10 a 4.7778899,5.2324353 46.301281 0 0 1.78621,-3.53515 l 4.70171,-51.71876 a 4.7778899,5.2324353 46.301281 0 0 -1.14347,-3.53515 l -9.0909,-10 a 4.7778899,5.2324353 46.301281 0 0 -4.18893,-1.40235 z M 316.41335,335 a 4.7778899,5.2324353 46.301281 0 0 -3.66832,1.46484 l -10.90909,10 a 4.7778899,5.2324353 46.301281 0 0 -0.64276,7.07032 l 9.09091,10 A 4.7778899,5.2324353 46.301281 0 0 313.68607,365 h 51.71876 a 4.7778899,5.2324353 46.301281 0 0 3.66832,-1.46484 l 10.90909,-10 a 4.7778899,5.2324353 46.301281 0 0 0.64276,-7.07032 l -9.09091,-10 A 4.7778899,5.2324353 46.301281 0 0 368.13211,335 Z" /><path
       style="fill:#ffffff;fill-opacity:0.0952381"
       d="m 298.3821,259.20312 a 4.7778899,5.2324353 46.301281 0 0 -2.88139,1.40235 l -10.9091,10 a 4.7778899,5.2324353 46.301281 0 0 -1.78621,3.53515 l -4.70171,51.71876 a 4.7778899,5.2324353 46.301281 0 0 1.14347,3.53515 l 9.0909,10 a 4.7778899,5.2324353 46.301281 0 0 7.07032,0 l 10.9091,-10 a 4.7778899,5.2324353 46.301281 0 0 1.78621,-3.53515 l 4.70171,-51.71876 a 4.7778899,5.2324353 46.301281 0 0 -1.14347,-3.53515 l -9.0909,-10 a 4.7778899,5.2324353 46.301281 0 0 -4.18893,-1.40235 z"
       id="path16" /></g></svg>
