<?xml version="1.0" encoding="UTF-8" standalone="no"?>
<svg
   height="24px"
   viewBox="0 -960 960 960"
   width="24px"
   fill="#e3e3e3"
   version="1.1"
   id="svg1"
   sodipodi:docname="speed.svg"
   inkscape:version="1.3.2 (091e20e, 2023-11-25, custom)"
   xmlns:inkscape="http://www.inkscape.org/namespaces/inkscape"
   xmlns:sodipodi="http://sodipodi.sourceforge.net/DTD/sodipodi-0.dtd"
   xmlns="http://www.w3.org/2000/svg"
   xmlns:svg="http://www.w3.org/2000/svg">
  <defs
     id="defs1">
    <inkscape:path-effect
       effect="bspline"
       id="path-effect3"
       is_visible="true"
       lpeversion="1.3"
       weight="33.333333"
       steps="2"
       helper_size="0"
       apply_no_weight="true"
       apply_with_weight="true"
       only_selected="false"
       uniform="false" />
    <inkscape:path-effect
       effect="bspline"
       id="path-effect2"
       is_visible="true"
       lpeversion="1.3"
       weight="33.333333"
       steps="2"
       helper_size="0"
       apply_no_weight="true"
       apply_with_weight="true"
       only_selected="false"
       uniform="false" />
    <inkscape:path-effect
       effect="bspline"
       id="path-effect2-7"
       is_visible="true"
       lpeversion="1.3"
       weight="33.333333"
       steps="2"
       helper_size="0"
       apply_no_weight="true"
       apply_with_weight="true"
       only_selected="false"
       uniform="false" />
  </defs>
  <sodipodi:namedview
     id="namedview1"
     pagecolor="#ffffff"
     bordercolor="#000000"
     borderopacity="0.25"
     inkscape:showpageshadow="2"
     inkscape:pageopacity="0.0"
     inkscape:pagecheckerboard="0"
     inkscape:deskcolor="#d1d1d1"
     showgrid="true"
     inkscape:zoom="11.976621"
     inkscape:cx="14.236069"
     inkscape:cy="17.909893"
     inkscape:window-width="1920"
     inkscape:window-height="1009"
     inkscape:window-x="-8"
     inkscape:window-y="-8"
     inkscape:window-maximized="1"
     inkscape:current-layer="svg1">
    <inkscape:grid
       visible="true"
       enabled="true"
       id="grid1"
       units="px"
       originx="0"
       originy="0"
       spacingx="160"
       spacingy="160"
       empcolor="#0099e5"
       empopacity="0.30196078"
       color="#0099e5"
       opacity="0.14901961"
       empspacing="0"
       dotted="false"
       gridanglex="30"
       gridanglez="30" />
  </sodipodi:namedview>
  <g
     id="g3"
     transform="matrix(0.8,0,0,0.8,96,-95.999999)">
    <path
       style="fill:#004a77;fill-opacity:1;stroke-width:40"
       d="M 240,-933.33334 C 106.66667,-906.66667 53.333331,-853.33333 26.666666,-719.99787 0,-586.6624 0,-373.33332 26.6672,-239.99946 53.3344,-106.6656 106.66667,-53.333325 240.00214,-26.666663 373.3376,0 586.66668,0 720.00054,-26.6672 853.3344,-53.3344 906.66668,-106.66668 933.33334,-240.00214 960,-373.3376 960,-586.66667 933.3328,-720.00054 906.6656,-853.3344 853.33333,-906.66668 719.99786,-933.33334 586.6624,-960 373.33333,-960 240,-933.33334 Z"
       id="path2"
       inkscape:path-effect="#path-effect3"
       inkscape:original-d="m 160,-960 c -53.33333,53.33333 -106.666668,106.66667 -160,160 0,213.3376 0,426.66668 0,640 53.3344,53.3344 106.66667,106.66668 160,160 213.3376,0 426.66668,0 640,0 53.3344,-53.3344 106.66668,-106.66668 160,-160 0,-213.3376 0,-426.66667 0,-640 -53.3344,-53.3344 -106.66668,-106.66667 -160,-160 -213.3376,0 -426.66667,0 -640,0 z"
       transform="matrix(1.25,0,0,1.25,-120,120.00004)" />
    <path
       d="m 480,-316.5 q 38,-0.5 56,-27.5 l 224,-336 -336,224 q -27,18 -28.5,55 -1.5,37 22.5,61 24,24 62,23.5 z m 0,-483.5 q 59,0 113.5,16.5 Q 648,-767 696,-734 l -76,48 Q 587,-703 551.5,-711.5 516,-720 480,-720 347,-720 253.5,-626.5 160,-533 160,-400 q 0,42 11.5,83 11.5,41 32.5,77 h 552 q 23,-38 33.5,-79 10.5,-41 10.5,-85 0,-36 -8.5,-70 -8.5,-34 -25.5,-66 l 48,-76 q 30,47 47.5,100 17.5,53 18.5,110 1,57 -13,109 -14,52 -41,99 -11,18 -30,28 -19,10 -40,10 H 204 q -21,0 -40,-10 -19,-10 -30,-28 -26,-45 -40,-95.5 Q 80,-344 80,-400 q 0,-83 31.5,-155.5 31.5,-72.5 86,-127 54.5,-54.5 127.5,-86 73,-31.5 155,-31.5 z m 7,313 z"
       id="path1" />
  </g>
</svg>
